<svg xmlns="http://www.w3.org/2000/svg" viewBox="0 0 3564.43 3152.93"><defs><style>.cls-1{isolation:isolate;}.cls-2{opacity:0.38;mix-blend-mode:multiply;}.cls-3,.cls-5,.cls-7,.cls-8{fill-rule:evenodd;}.cls-4,.cls-6{fill:none;stroke-linejoin:round;stroke-width:60px;}.cls-4{stroke:#000;}.cls-5{fill:#212121;}.cls-6{stroke:#424242;}.cls-7{fill:#424242;}.cls-8{fill:#eee;}</style></defs><title>Asset 3</title><g class="cls-1"><g id="Layer_2" data-name="Layer 2"><g id="Layer_1-2" data-name="Layer 1"><g class="cls-2"><path class="cls-3" d="M154,769.91H3461.41a73,73,0,0,1,73,73v2207a73,73,0,0,1-73,73H154a73,73,0,0,1-73-73v-2207A73,73,0,0,1,154,769.91Z"/><path class="cls-4" d="M154,769.91H3461.41a73,73,0,0,1,73,73v2207a73,73,0,0,1-73,73H154a73,73,0,0,1-73-73v-2207A73,73,0,0,1,154,769.91Z"/></g><path class="cls-5" d="M103,687.91H3410.41a73,73,0,0,1,73,73v2207a73,73,0,0,1-73,73H103a73,73,0,0,1-73-73v-2207A73,73,0,0,1,103,687.91Z"/><path class="cls-6" d="M103,687.91H3410.41a73,73,0,0,1,73,73v2207a73,73,0,0,1-73,73H103a73,73,0,0,1-73-73v-2207A73,73,0,0,1,103,687.91Z"/><path class="cls-7" d="M2547.62,2426.25H2926c30,0,54.36,27.62,54.36,61.69v58.53c0,34.08-24.34,61.7-54.36,61.7H2547.62c-30,0-54.37-27.62-54.37-61.7v-58.53C2493.25,2453.87,2517.59,2426.25,2547.62,2426.25Z"/><path class="cls-7" d="M575.26,1129.1H2935.1c28.58,0,51.75,25.37,51.75,56.66v134.85c0,31.3-23.17,56.66-51.75,56.66H575.26c-28.58,0-51.75-25.36-51.75-56.66V1185.76C523.51,1154.47,546.68,1129.1,575.26,1129.1Z"/><path class="cls-7" d="M575.26,1824.59H2935.1c28.58,0,51.75,25.37,51.75,56.66V2016.1c0,31.3-23.17,56.66-51.75,56.66H575.26c-28.58,0-51.75-25.36-51.75-56.66V1881.25C523.51,1850,546.68,1824.59,575.26,1824.59Z"/><g class="cls-2"><path class="cls-3" d="M1881,73c158.38,0,286.77,128.39,286.77,286.77S2039.37,646.53,1881,646.53s-286.76-128.39-286.76-286.76S1722.62,73,1881,73Z"/><path class="cls-3" d="M1022.09,1801.4S801,2295.6,1248.74,2618c211.8,152.47,484.21,158.58,668.55,81.76,203.32-84.74,303.23-259.77,303.23-259.77l325-624S2310,2026.06,2079.77,2108.77c-71,25.5-136,27.06-201.81,13.45l148,195.6s-291.89,434.43-704.78,51.75c-166.56-154.37-135.26-389.29-75.55-509.18-112.49,225.88,626.12-1236.72,626.12-1236.72l-211.12-94.18Z"/></g><path class="cls-8" d="M1825,0c158.38,0,286.77,128.39,286.77,286.77S1983.37,573.53,1825,573.53s-286.76-128.39-286.76-286.76S1666.62,0,1825,0Z"/><path class="cls-8" d="M966.09,1728.4S745,2222.6,1192.74,2545c211.8,152.47,484.21,158.58,668.55,81.76,203.32-84.74,303.23-259.77,303.23-259.77l325-624S2254,1953.06,2023.77,2035.77c-71,25.5-136,27.06-201.81,13.45l148,195.6s-291.89,434.43-704.78,51.75c-166.56-154.37-135.26-389.29-75.55-509.18-112.49,225.88,626.12-1236.72,626.12-1236.72l-211.12-94.18Z"/></g></g></g></svg>